# Исправление черного экрана в видео - v2

## 🔥 Проблема сохраняется

После добавления метаданных видео всё равно показывает черный экран.

## 🤔 Возможные причины (обновлено)

1. **Проблема с объединением потоков** - `bestvideo+bestaudio` не объединяется корректно
2. **Видео без видео дорожки** - скачалось только аудио
3. **Видео без аудио дорожки** - скачалось только видео
4. **Неправильный формат/кодек** - хотя обычно это не проблема

## ✅ Исправления v2

### 1. Изменён формат скачивания

**БЫЛО (проблемное):**
```rust
"bestvideo[height<=1080]+bestaudio/best[height<=1080]"
```

Проблема: `bestvideo+bestaudio` требует объединения двух отдельных потоков, что может завершиться ошибкой или неполным файлом.

**СТАЛО (исправлено):**
```rust
"best[height<=1080]"
```

Преимущества:
- ✅ `best` выбирает **готовое видео с аудио**, если доступно
- ✅ Не требует объединения потоков
- ✅ Меньше вероятность ошибок
- ✅ Быстрее скачивание

### 2. Добавлена проверка дорожек

Новая функция `has_both_video_and_audio()`:
- Проверяет наличие видео дорожки
- Проверяет наличие аудио дорожки
- Логирует детальную информацию если что-то отсутствует
- Блокирует отправку повреждённых файлов

### 3. Улучшено логирование

Добавлено логирование:
- Размер скачанного файла
- Информация о дорожках
- Детальная диагностика при ошибках

### 4. Оптимизировано перекодирование

**БЫЛО (медленно):**
```rust
"--postprocessor-args", "ffmpeg:-c:v libx264 -preset fast -crf 23 -c:a aac -b:a 128k -movflags +faststart"
```
Принудительное перекодирование всех видео → медленно.

**СТАЛО (быстрее):**
```rust
"--postprocessor-args", "ffmpeg:-movflags +faststart"
```
Только оптимизация для streaming, без перекодирования → быстрее.

## 🚀 Что сделать

```bash
# 1. Пересоберите проект
cd /Users/stan/Dev/_PROJ/doradura
cargo build --release

# 2. Перезапустите бота
./target/release/doradura
```

## 🔍 Диагностика

### Шаг 1: Включите отладочные логи

```bash
export RUST_LOG=doradura=debug
./target/release/doradura
```

### Шаг 2: Скачайте видео и проверьте логи

**✅ Правильно (после исправления):**
```
[INFO] Using video format: best
[INFO] Video downloaded in XX seconds
[INFO] Downloaded video file size: XX.XX MB
[INFO] Video file verified: contains both video and audio streams
[INFO] Video metadata for /path/to/video.mp4: Some((180, Some(1280), Some(720)))
```

**❌ Проблема (старый формат или повреждённый файл):**
```
[INFO] Using video format: bestvideo[height<=720]+bestaudio/best[height<=720]
[ERROR] Video file is missing video or audio stream!
[ERROR] This can cause black screen or playback issues in Telegram
[ERROR] File streams info: ...
```

### Шаг 3: Проверьте файл локально

```bash
# Проверьте дорожки
ffprobe /path/to/downloads/video.mp4

# Должны увидеть:
# Stream #0:0: Video: h264 (...)     <- видео дорожка
# Stream #0:1: Audio: aac (...)     <- аудио дорожка
```

Если видите только одну дорожку → проблема с объединением.

### Шаг 4: Проверьте кодек

```bash
ffprobe -v error -select_streams v:0 -show_entries stream=codec_name /path/to/downloads/video.mp4
# Должно быть: h264

ffprobe -v error -select_streams a:0 -show_entries stream=codec_name /path/to/downloads/video.mp4
# Должно быть: aac
```

## 🛠️ Дополнительные решения

### Если проблема с форматом всё ещё есть

Можно включить принудительное перекодирование (медленнее, но надёжнее):

```rust
// В download_video_file_with_progress, замените:
"--postprocessor-args", "ffmpeg:-movflags +faststart",

// На:
"--postprocessor-args", "ffmpeg:-c:v libx264 -preset fast -crf 23 -c:a aac -b:a 128k -movflags +faststart",
```

### Если нужно проверить конкретное видео

```bash
# Скачайте видео напрямую через yt-dlp
yt-dlp --format "best[height<=720]" -o "test_video.mp4" "URL"

# Проверьте файл
ffprobe test_video.mp4

# Попробуйте открыть локально
open test_video.mp4  # macOS
```

Если видео открывается локально но не в Telegram → проблема с метаданными или форматом.
Если не открывается локально → проблема с скачиванием.

## 📊 Сравнение форматов

| Формат | Объединение | Скорость | Надёжность |
|--------|-------------|----------|------------|
| `bestvideo+bestaudio` | ❌ Требуется | ⚠️ Медленнее | ⚠️ Может быть проблемным |
| `best` | ✅ Не требуется | ✅ Быстрее | ✅ Надёжнее |

## ✅ Итог изменений

- ✅ Формат изменён с `bestvideo+bestaudio` на `best`
- ✅ Добавлена проверка наличия видео и аудио дорожек
- ✅ Улучшено логирование для диагностики
- ✅ Оптимизировано перекодирование (быстрее)
- ✅ Добавлена детальная диагностика ошибок

## 🎯 Что проверить после перезапуска

1. **Проверьте логи** - должны видеть "best" формат и подтверждение дорожек
2. **Скачайте тестовое видео**
3. **Откройте в Telegram** - должно воспроизводиться
4. **Если всё ещё черный экран** - проверьте логи и файл локально (см. Диагностика выше)

## 🚨 Если проблема остаётся

1. **Проверьте, что файл действительно содержит видео:**
   ```bash
   ffprobe /path/to/downloads/video.mp4 2>&1 | grep -E "(Stream|Video|Audio)"
   ```

2. **Попробуйте другой URL** - возможно, проблема конкретного видео

3. **Проверьте версию yt-dlp:**
   ```bash
   yt-dlp --version
   ```
   Должна быть последняя версия.

4. **Проверьте cookies:**
   ```bash
   grep "cookies" /path/to/logs
   ```

## 📚 Связанные документы

- **VIDEO_BLACK_SCREEN_FIX.md** - Первая версия исправлений (метаданные)
- **YOUTUBE_PO_TOKEN_FIX.md** - Исправление ошибки PO Token
- **SESSION_SUMMARY.md** - Полное резюме всех изменений

